<svg id="Layer_1" enable-background="new 0 0 512 512" height="512" viewBox="0 0 512 512" width="512" xmlns="http://www.w3.org/2000/svg"><g><path d="m256 512c-68.38 0-132.667-26.628-181.02-74.98s-74.98-112.64-74.98-181.02 26.628-132.667 74.98-181.02 112.64-74.98 181.02-74.98 132.667 26.628 181.02 74.98 74.98 112.64 74.98 181.02-26.628 132.667-74.98 181.02-112.64 74.98-181.02 74.98zm0-480c-123.514 0-224 100.486-224 224s100.486 224 224 224 224-100.486 224-224-100.486-224-224-224z"/><path d="m312 200c8.836 0 16-7.164 16-16v-8c0-39.701-32.299-72-72-72s-72 32.299-72 72v48h-24c-8.836 0-16 7.164-16 16s7.164 16 16 16h24v7.964c0 11.226-4.372 21.78-12.309 29.718l-39.004 39.004c-4.576 4.576-5.945 11.458-3.469 17.437s8.311 9.877 14.782 9.877h48.676c12.359 0 24.494 3.361 35.092 9.72 15.57 9.342 33.398 14.28 51.556 14.28h32.676c8.836 0 16-7.164 16-16s-7.164-16-16-16h-32.676c-12.359 0-24.494-3.361-35.092-9.72-15.57-9.342-33.398-14.28-51.556-14.28h-10.049l11.69-11.691c13.983-13.981 21.683-32.571 21.683-52.345v-7.964h24c8.836 0 16-7.164 16-16s-7.164-16-16-16h-24v-48c0-22.056 17.944-40 40-40s40 17.944 40 40v8c0 8.836 7.164 16 16 16z"/></g></svg>